<svg width="295" height="505" viewBox="0 0 295 505" fill="none" xmlns="http://www.w3.org/2000/svg">
<g filter="url(#filter0_d)">
<rect x="20" y="16" width="254.803" height="464.484" rx="20" fill="#252982"/>
<rect x="31.9436" y="29.2721" width="232.242" height="437.942" rx="15" fill="white"/>
<path d="M187.214 114.052L31.9435 114.052L31.9435 44.118C31.9435 35.8337 38.6593 29.118 46.9435 29.118L187.214 29.118L187.214 114.052Z" fill="#ECECEC"/>
<path d="M264.186 205.622L146.785 205.622C141.262 205.622 136.785 201.145 136.785 195.622L136.785 120.688L264.186 120.688L264.186 205.622Z" fill="#ECECEC"/>
<path d="M187.214 337.005L136.784 337.005L136.784 222.258C136.784 216.735 141.261 212.258 146.784 212.258L187.214 212.258L187.214 337.005Z" fill="#ECECEC"/>
<path d="M264.186 337.005L187.214 337.005L187.214 212.258L264.186 212.258L264.186 337.005Z" fill="#ECECEC"/>
<path d="M264.186 344.967L31.9441 344.967L31.9441 303.827L264.186 303.827L264.186 344.967Z" fill="#ECECEC"/>
<path d="M128.822 236.052C128.822 247.097 119.867 256.052 108.822 256.052L31.9437 256.052L31.9437 120.688L128.822 120.688L128.822 236.052Z" fill="#ECECEC"/>
<path d="M128.822 297.192L31.9437 297.192L31.9437 212.257L118.822 212.257C124.345 212.257 128.822 216.735 128.822 222.257L128.822 297.192Z" fill="#ECECEC"/>
<path d="M264.186 114.052L195.177 114.052L195.177 29.118L249.186 29.118C257.47 29.118 264.186 35.8337 264.186 44.118L264.186 114.052Z" fill="#5CD28B"/>
<rect x="187.214" y="29.1181" width="7.96258" height="84.9342" fill="#4D80FF"/>
<path d="M128.822 119.052C128.822 116.291 131.061 114.052 133.822 114.052H136.785V206.949H128.822V119.052Z" fill="#4D80FF"/>
<path d="M179.252 205.622H182.215C184.976 205.622 187.215 207.861 187.215 210.622V293.21H184.252C181.491 293.21 179.252 290.972 179.252 288.21V205.622Z" fill="#4D80FF"/>
<path d="M182.214 205.622C184.976 205.622 187.214 207.861 187.214 210.622L187.214 213.585L133.822 213.585C131.06 213.585 128.822 211.346 128.822 208.585L128.822 205.622L182.214 205.622Z" fill="#4D80FF"/>
<path d="M225.7 287.902L225.7 295.864L184.252 295.864C181.49 295.864 179.252 293.626 179.252 290.864L179.252 287.902L225.7 287.902Z" fill="#4D80FF"/>
<path d="M195.177 114.052L195.177 117.015C195.177 119.776 192.938 122.015 190.177 122.015L136.785 122.015L136.785 114.052L195.177 114.052Z" fill="#4D80FF"/>
<path d="M224.373 261.905C232.03 261.905 238.237 268.112 238.237 275.768C238.237 281.627 234.12 288.011 225.994 294.99C225.542 295.378 224.966 295.591 224.371 295.59C223.775 295.59 223.199 295.376 222.748 294.987L222.21 294.52C214.444 287.724 210.51 281.496 210.51 275.768C210.51 268.112 216.716 261.905 224.373 261.905ZM224.373 270.436C222.959 270.436 221.603 270.998 220.603 271.998C219.603 272.998 219.041 274.354 219.041 275.768C219.041 277.183 219.603 278.539 220.603 279.539C221.603 280.539 222.959 281.101 224.373 281.101C225.787 281.101 227.144 280.539 228.144 279.539C229.144 278.539 229.705 277.183 229.705 275.768C229.705 274.354 229.144 272.998 228.144 271.998C227.144 270.998 225.787 270.436 224.373 270.436Z" fill="#343C9C"/>
<rect x="31.9438" y="325.061" width="232.242" height="122.093" rx="15" fill="#DFF5FF"/>
<rect x="31.9436" y="367.528" width="232.242" height="99.5322" rx="15" fill="#C4C4C4"/>
<rect x="31.9436" y="367.528" width="232.242" height="99.5322" rx="15" fill="url(#paint0_linear)"/>
<path d="M92.99 19.8284H199.158V35.0433C199.158 40.5661 194.681 45.0433 189.158 45.0433H102.99C97.4671 45.0433 92.99 40.5661 92.99 35.0433V19.8284Z" fill="#252982"/>
</g>
<defs>
<filter id="filter0_d" x="0" y="0" width="294.803" height="504.484" filterUnits="userSpaceOnUse" color-interpolation-filters="sRGB">
<feFlood flood-opacity="0" result="BackgroundImageFix"/>
<feColorMatrix in="SourceAlpha" type="matrix" values="0 0 0 0 0 0 0 0 0 0 0 0 0 0 0 0 0 0 127 0"/>
<feOffset dy="4"/>
<feGaussianBlur stdDeviation="10"/>
<feColorMatrix type="matrix" values="0 0 0 0 0 0 0 0 0 0 0 0 0 0 0 0 0 0 0.15 0"/>
<feBlend mode="normal" in2="BackgroundImageFix" result="effect1_dropShadow"/>
<feBlend mode="normal" in="SourceGraphic" in2="effect1_dropShadow" result="shape"/>
</filter>
<linearGradient id="paint0_linear" x1="148.065" y1="367.528" x2="148.065" y2="467.06" gradientUnits="userSpaceOnUse">
<stop stop-color="#CCEFFF"/>
<stop offset="1" stop-color="#AAC7DC"/>
</linearGradient>
</defs>
</svg>
